<?xml version="1.0" encoding="UTF-8"?>
<svg xmlns="http://www.w3.org/2000/svg" viewBox="0 0 64 64" role="img" aria-label="T / AT timing pulley" shape-rendering="geometricPrecision" color="#8d9aa7">
  <g transform="translate(1.00000000 1.44295174) scale(0.11959005)">
    <path d="M 470.37883,202.17146   L 515.08006,177.78898" fill="none" stroke="currentColor" stroke-width="14.21522987" stroke-linecap="round" stroke-linejoin="round" />
    <path d="M 161.53398,500.85694   L 195.05991,451.07603   L 199.12365,447.01228" fill="none" stroke="currentColor" stroke-width="14.21522987" stroke-linecap="round" stroke-linejoin="round" />
    <path d="M 273.28706,29.462173   L 323.06797,2.031874" fill="none" stroke="currentColor" stroke-width="14.21522987" stroke-linecap="round" stroke-linejoin="round" />
    <path d="M 102.60964,159.50211   L 146.29493,119.88057   L 150.35868,115.81682" fill="none" stroke="currentColor" stroke-width="14.21522987" stroke-linecap="round" stroke-linejoin="round" />
    <path d="M 298.68548,333.22734   L 343.38671,293.6058   L 347.45046,289.54205" fill="none" stroke="currentColor" stroke-width="14.21522987" stroke-linecap="round" stroke-linejoin="round" />
    <path d="M 105.65745,218.42646   L 104.64151,225.53802   L 102.60964,230.6177" fill="none" stroke="currentColor" stroke-width="14.21522987" stroke-linecap="round" stroke-linejoin="round" />
    <path d="M 391.13575,26.414362   L 384.02419,26.414362   L 379.96044,25.398425" fill="none" stroke="currentColor" stroke-width="14.21522987" stroke-linecap="round" stroke-linejoin="round" />
    <path d="M 256.01613,99.561827   L 218.42646,125.97619" fill="none" stroke="currentColor" stroke-width="14.21522987" stroke-linecap="round" stroke-linejoin="round" />
    <path d="M 102.60964,159.50211   L 98.54589,166.61367   L 97.529953,171.69335" fill="none" stroke="currentColor" stroke-width="14.21522987" stroke-linecap="round" stroke-linejoin="round" />
    <path d="M 72.131528,265.15956   L 66.035906,269.22331   L 60.95622,269.22331" fill="none" stroke="currentColor" stroke-width="14.21522987" stroke-linecap="round" stroke-linejoin="round" />
    <path d="M 160.51805,513.04819   L 160.51805,514.06413" fill="none" stroke="currentColor" stroke-width="14.21522987" stroke-linecap="round" stroke-linejoin="round" />
    <path d="M 207.25115,128.00806   L 163.56586,113.78494" fill="none" stroke="currentColor" stroke-width="14.21522987" stroke-linecap="round" stroke-linejoin="round" />
    <path d="M 359.6417,286.49424   L 352.53014,286.49424   L 347.45046,289.54205" fill="none" stroke="currentColor" stroke-width="14.21522987" stroke-linecap="round" stroke-linejoin="round" />
    <path d="M 414.5023,299.70142   L 408.40668,301.73329   L 403.32699,301.73329" fill="none" stroke="currentColor" stroke-width="14.21522987" stroke-linecap="round" stroke-linejoin="round" />
    <path d="M 266.1755,40.63748   L 262.11175,89.402457" fill="none" stroke="currentColor" stroke-width="14.21522987" stroke-linecap="round" stroke-linejoin="round" />
    <path d="M 102.60964,230.6177   L 72.131528,265.15956" fill="none" stroke="currentColor" stroke-width="14.21522987" stroke-linecap="round" stroke-linejoin="round" />
    <path d="M 273.28706,29.462173   L 268.20737,34.541858   L 266.1755,40.63748" fill="none" stroke="currentColor" stroke-width="14.21522987" stroke-linecap="round" stroke-linejoin="round" />
    <path d="M 163.56586,113.78494   L 156.4543,113.78494   L 150.35868,115.81682" fill="none" stroke="currentColor" stroke-width="14.21522987" stroke-linecap="round" stroke-linejoin="round" />
    <path d="M 452.09197,273.28706   L 414.5023,299.70142" fill="none" stroke="currentColor" stroke-width="14.21522987" stroke-linecap="round" stroke-linejoin="round" />
    <path d="M 161.53398,500.85694   L 159.50211,507.9685   L 160.51805,513.04819" fill="none" stroke="currentColor" stroke-width="14.21522987" stroke-linecap="round" stroke-linejoin="round" />
    <path d="M 463.26728,213.34677   L 458.18759,262.11175" fill="none" stroke="currentColor" stroke-width="14.21522987" stroke-linecap="round" stroke-linejoin="round" />
    <path d="M 302.74923,392.15169   L 301.73329,399.26324   L 298.68548,403.32699" fill="none" stroke="currentColor" stroke-width="14.21522987" stroke-linecap="round" stroke-linejoin="round" />
    <path d="M 210.29896,440.91666   L 203.1874,442.94854   L 199.12365,447.01228" fill="none" stroke="currentColor" stroke-width="14.21522987" stroke-linecap="round" stroke-linejoin="round" />
    <path d="M 403.32699,301.73329   L 359.6417,286.49424" fill="none" stroke="currentColor" stroke-width="14.21522987" stroke-linecap="round" stroke-linejoin="round" />
    <path d="M 97.529953,171.69335   L 105.65745,218.42646" fill="none" stroke="currentColor" stroke-width="14.21522987" stroke-linecap="round" stroke-linejoin="round" />
    <path d="M 298.68548,333.22734   L 294.62173,339.32296   L 294.62173,345.41858" fill="none" stroke="currentColor" stroke-width="14.21522987" stroke-linecap="round" stroke-linejoin="round" />
    <path d="M 218.42646,125.97619   L 211.3149,128.00806   L 207.25115,128.00806" fill="none" stroke="currentColor" stroke-width="14.21522987" stroke-linecap="round" stroke-linejoin="round" />
    <path d="M 60.95622,269.22331   L 13.207181,268.20737" fill="none" stroke="currentColor" stroke-width="14.21522987" stroke-linecap="round" stroke-linejoin="round" />
    <path d="M 458.18759,262.11175   L 456.15572,269.22331   L 452.09197,273.28706" fill="none" stroke="currentColor" stroke-width="14.21522987" stroke-linecap="round" stroke-linejoin="round" />
    <path d="M 379.96044,25.398425   L 346.43452,2.031874" fill="none" stroke="currentColor" stroke-width="14.21522987" stroke-linecap="round" stroke-linejoin="round" />
    <path d="M 432.78917,9.1434331   L 391.13575,26.414362" fill="none" stroke="currentColor" stroke-width="14.21522987" stroke-linecap="round" stroke-linejoin="round" />
    <path d="M 440.91666,2.031874   L 435.83698,8.1274961   L 432.78917,9.1434331" fill="none" stroke="currentColor" stroke-width="14.21522987" stroke-linecap="round" stroke-linejoin="round" />
    <path d="M 13.207181,268.20737   L 7.1115591,269.22331   L 2.031874,273.28706" fill="none" stroke="currentColor" stroke-width="14.21522987" stroke-linecap="round" stroke-linejoin="round" />
    <path d="M 262.11175,89.402457   L 259.06394,95.498079   L 256.01613,99.561827" fill="none" stroke="currentColor" stroke-width="14.21522987" stroke-linecap="round" stroke-linejoin="round" />
    <path d="M 268.20737,437.86885   L 262.11175,442.94854   L 257.03206,442.94854" fill="none" stroke="currentColor" stroke-width="14.21522987" stroke-linecap="round" stroke-linejoin="round" />
    <path d="M 257.03206,442.94854   L 210.29896,440.91666" fill="none" stroke="currentColor" stroke-width="14.21522987" stroke-linecap="round" stroke-linejoin="round" />
    <path d="M 294.62173,345.41858   L 302.74923,392.15169" fill="none" stroke="currentColor" stroke-width="14.21522987" stroke-linecap="round" stroke-linejoin="round" />
    <path d="M 298.68548,403.32699   L 268.20737,437.86885" fill="none" stroke="currentColor" stroke-width="14.21522987" stroke-linecap="round" stroke-linejoin="round" />
    <path d="M 470.37883,202.17146   L 465.29915,208.26709   L 463.26728,213.34677" fill="none" stroke="currentColor" stroke-width="14.21522987" stroke-linecap="round" stroke-linejoin="round" />
    <path d="M 257.03206,442.94854   L 60.95622,269.22331" fill="none" stroke="currentColor" stroke-width="14.21522987" stroke-linecap="round" stroke-linejoin="round" />
    <path d="M 515.08006,151.37461   L 345.41858,2.031874" fill="none" stroke="currentColor" stroke-width="14.21522987" stroke-linecap="round" stroke-linejoin="round" />
    <path d="M 463.26728,213.34677   L 266.1755,40.63748" fill="none" stroke="currentColor" stroke-width="14.21522987" stroke-linecap="round" stroke-linejoin="round" />
    <path d="M 458.18759,262.11175   L 262.11175,89.402457" fill="none" stroke="currentColor" stroke-width="14.21522987" stroke-linecap="round" stroke-linejoin="round" />
    <path d="M 160.51805,513.04819   L 3.047811,373.86482" fill="none" stroke="currentColor" stroke-width="14.21522987" stroke-linecap="round" stroke-linejoin="round" />
    <path d="M 403.32699,301.73329   L 207.25115,128.00806" fill="none" stroke="currentColor" stroke-width="14.21522987" stroke-linecap="round" stroke-linejoin="round" />
    <path d="M 515.08006,66.035906   L 441.9326,2.031874" fill="none" stroke="currentColor" stroke-width="14.21522987" stroke-linecap="round" stroke-linejoin="round" />
    <path d="M 210.29896,440.91666   L 13.207181,268.20737" fill="none" stroke="currentColor" stroke-width="14.21522987" stroke-linecap="round" stroke-linejoin="round" />
    <path d="M 302.74923,392.15169   L 105.65745,218.42646" fill="none" stroke="currentColor" stroke-width="14.21522987" stroke-linecap="round" stroke-linejoin="round" />
    <path d="M 359.6417,286.49424   L 163.56586,113.78494" fill="none" stroke="currentColor" stroke-width="14.21522987" stroke-linecap="round" stroke-linejoin="round" />
    <path d="M 134.10369,514.06413   L 3.047811,398.24731" fill="none" stroke="currentColor" stroke-width="14.21522987" stroke-linecap="round" stroke-linejoin="round" />
    <path d="M 34.541858,514.06413   L 3.047811,485.61789" fill="none" stroke="currentColor" stroke-width="14.21522987" stroke-linecap="round" stroke-linejoin="round" />
    <path d="M 515.08006,4.063748   L 513.04819,2.031874" fill="none" stroke="currentColor" stroke-width="14.21522987" stroke-linecap="round" stroke-linejoin="round" />
    <path d="M 294.62173,345.41858   L 97.529953,171.69335" fill="none" stroke="currentColor" stroke-width="14.21522987" stroke-linecap="round" stroke-linejoin="round" />
    <path d="M 515.08006,144.26306   L 379.96044,25.398425" fill="none" stroke="currentColor" stroke-width="14.21522987" stroke-linecap="round" stroke-linejoin="round" />
  </g>
</svg>
